<?xml version="1.0" encoding="utf-8"?>
<!-- Generator: Adobe Illustrator 16.0.0, SVG Export Plug-In . SVG Version: 6.00 Build 0)  -->
<!DOCTYPE svg PUBLIC "-//W3C//DTD SVG 1.1//EN" "http://www.w3.org/Graphics/SVG/1.1/DTD/svg11.dtd">
<svg version="1.1" id="Layer_1" xmlns="http://www.w3.org/2000/svg" xmlns:xlink="http://www.w3.org/1999/xlink" x="0px" y="0px"
	 width="62.511px" height="62.268px" viewBox="0 0 62.511 62.268" enable-background="new 0 0 62.511 62.268" xml:space="preserve">
<path fill="#2D7CB3" d="M55.548,9.434c-2.132,0.581-1.229,2.812-2.959,1.958c-0.388-0.193-1.89-1.518-2.374-6.071
	c-0.483-4.555-7.334-9.804-11.917,1.252c-0.383,0.923-0.858,2.222-1.399,3.784c-0.09-0.008-0.176-0.027-0.268-0.027
	c-1.623,0-2.938,1.329-2.938,2.969c0,1.063,0.558,1.988,1.389,2.513c-0.483,1.491-0.988,3.07-1.501,4.69
	c-0.3-0.104-0.616-0.172-0.95-0.172c-1.623,0-2.938,1.329-2.938,2.969c0,1.35,0.896,2.475,2.115,2.836
	c-0.458,1.461-0.912,2.914-1.355,4.328c-0.263-0.078-0.535-0.133-0.822-0.133c-1.623,0-2.938,1.329-2.938,2.969
	c0,1.301,0.832,2.394,1.984,2.795c-0.795,2.497-1.5,4.662-2.047,6.229v-0.135c-0.527,1.506-0.912,2.471-1.087,2.645
	c-1.065,1.061-4.048,0.887-1.746-3.691c2.416-4.807,1.712-9.001,0.666-13.258c-0.916-3.729,0.396-6.752,1.088-8.977l0.079-0.222
	l0.326-2.489L0,33.199l1.883,0.842l-0.15,0.097c0,0,0.089-0.025,0.234-0.059l0.073,0.032l0.113-0.074
	c1.092-0.229,4.027-0.632,5.273,1.319c1.039,1.627,1.356,4.238,0.581,9.152c-0.775,4.912-0.627,17.759,13.873,17.759
	c1.654,0,3.238-0.336,4.75-1.188v0.242c4.197-2.378,7.831-8.784,10.833-23.306C42.429,13.999,44.209,8.13,44.209,8.13
	s1.646-1.453,2.034,1.162c0.388,2.616,1.198,5.933,6.43,5.933c5.232,0,8.643-1.325,9.708-2.875
	C63.447,10.8,57.68,8.853,55.548,9.434z"/>
</svg>
