<?xml version="1.0" encoding="utf-8"?>
<!-- Generator: Adobe Illustrator 16.0.0, SVG Export Plug-In . SVG Version: 6.00 Build 0)  -->
<!DOCTYPE svg PUBLIC "-//W3C//DTD SVG 1.1//EN" "http://www.w3.org/Graphics/SVG/1.1/DTD/svg11.dtd">
<svg version="1.1" id="Layer_1" xmlns="http://www.w3.org/2000/svg" xmlns:xlink="http://www.w3.org/1999/xlink" x="0px" y="0px"
	 width="49.034px" height="63.547px" viewBox="0 0 49.034 63.547" enable-background="new 0 0 49.034 63.547" xml:space="preserve">
<g>
	<path fill="#2D7CB3" d="M28.063,14.465v30.833c0,9.186-5.275,13.399-10.066,15.898c-7.86,4.107-14.47,2.505-17.022-2.277
		c-2.549-4.773-0.142-10.854,7.715-14.958c4.346-2.271,8.866-3.11,12.476-2.606l0.031,0.018c0,0,0-39.622,0-41.339
		c2.025,0,2.63-0.55,6.972,2.825c6.62,5.146,20.866,5.865,20.866,32.375c0,2.736-1.441,1.623-1.623,0.858
		C45.221,26.744,38.224,16.269,28.063,14.465z"/>
</g>
</svg>
