<?xml version="1.0" encoding="utf-8"?>
<!-- Generator: Adobe Illustrator 16.0.0, SVG Export Plug-In . SVG Version: 6.00 Build 0)  -->
<!DOCTYPE svg PUBLIC "-//W3C//DTD SVG 1.1//EN" "http://www.w3.org/Graphics/SVG/1.1/DTD/svg11.dtd">
<svg version="1.1" id="Layer_1" xmlns="http://www.w3.org/2000/svg" xmlns:xlink="http://www.w3.org/1999/xlink" x="0px" y="0px"
	 width="62.146px" height="46.51px" viewBox="0 0 62.146 46.51" enable-background="new 0 0 62.146 46.51" xml:space="preserve">
<g>
	<path fill="#2D7CB3" d="M21.25,14.5C21.25,6.492,30.405,0,41.698,0s20.448,6.492,20.448,14.5c0,6.211-5.517,11.494-13.256,13.561
		c2.814,2.796,6.207,6.205,5.91,6.105c-0.338-0.112-10.434-3.346-16.944-5.43C28.401,27.46,21.25,21.576,21.25,14.5z"/>
	<path fill="#2D7CB3" d="M37.523,30.205C27.217,28.766,19.75,22.177,19.75,14.5c0-1.913,0.465-3.748,1.313-5.45
		C9.314,9.56,0,16.458,0,24.918c0,6.818,6.057,12.619,14.553,14.887c-3.091,3.07-6.814,6.812-6.489,6.703
		c0.372-0.123,11.455-3.672,18.603-5.961c7.059-0.953,12.927-4.252,15.972-8.705C40.887,31.281,39.131,30.72,37.523,30.205z"/>
</g>
</svg>
